<?xml version="1.0" encoding="UTF-8" standalone="yes"?><svg xmlns="http://www.w3.org/2000/svg" xmlns:xlink="http://www.w3.org/1999/xlink" height="394px" style="width:452px;height:394px;" version="1.1" viewBox="0 0 452 394" width="452px"><defs><filter height="300%" id="f1" width="300%" x="-1" y="-1"><feGaussianBlur result="blurOut" stdDeviation="2.0"/><feColorMatrix in="blurOut" result="blurOut2" type="matrix" values="0 0 0 0 0 0 0 0 0 0 0 0 0 0 0 0 0 0 .4 0"/><feOffset dx="4.0" dy="4.0" in="blurOut2" result="blurOut3"/><feBlend in="SourceGraphic" in2="blurOut3" mode="normal"/></filter></defs><g><rect fill="#FFFFFF" filter="url(#f1)" height="362" style="stroke: #000000; stroke-width: 2.0;" width="216" x="97" y="25"/><text fill="#000000" font-family="sans-serif" font-size="14" font-weight="bold" lengthAdjust="spacingAndGlyphs" textLength="142" x="134" y="41.5332">Automatische Kasse</text><ellipse cx="204.8716" cy="144.1743" fill="#FEFECE" filter="url(#f1)" rx="68.8716" ry="16.1743" style="stroke: #A80036; stroke-width: 1.5;"/><text fill="#000000" font-family="sans-serif" font-size="14" lengthAdjust="spacingAndGlyphs" textLength="98" x="155.8716" y="149.479">Artikel erfassen</text><ellipse cx="205.1309" cy="282.8262" fill="#FEFECE" filter="url(#f1)" rx="92.1309" ry="20.8262" style="stroke: #A80036; stroke-width: 1.5;"/><text fill="#000000" font-family="sans-serif" font-size="14" lengthAdjust="spacingAndGlyphs" textLength="155" x="127.6309" y="288.1309">Warenkorb manipulieren</text><ellipse cx="205.0122" cy="76.9517" fill="#FEFECE" filter="url(#f1)" rx="44.0122" ry="15.4517" style="stroke: #A80036; stroke-width: 1.5;"/><text fill="#000000" font-family="sans-serif" font-size="14" lengthAdjust="spacingAndGlyphs" textLength="58" x="176.0122" y="82.2564">Bezahlen</text><ellipse cx="204.8112" cy="211.1622" fill="#FEFECE" filter="url(#f1)" rx="66.3112" ry="15.6622" style="stroke: #A80036; stroke-width: 1.5;"/><text fill="#000000" font-family="sans-serif" font-size="14" lengthAdjust="spacingAndGlyphs" textLength="91" x="159.3112" y="216.4669">Kasse räumen</text><ellipse cx="205.1838" cy="354.9517" fill="#FEFECE" filter="url(#f1)" rx="41.1838" ry="15.4517" style="stroke: #A80036; stroke-width: 1.5;"/><text fill="#000000" font-family="sans-serif" font-size="14" lengthAdjust="spacingAndGlyphs" textLength="54" x="178.1838" y="360.2564">Wartung</text><ellipse cx="29.5" cy="148.5" fill="#FEFECE" filter="url(#f1)" rx="8" ry="8" style="stroke: #A80036; stroke-width: 2.0;"/><path d="M29.5,156.5 L29.5,183.5 M16.5,164.5 L42.5,164.5 M29.5,183.5 L16.5,198.5 M29.5,183.5 L42.5,198.5 " fill="#FEFECE" filter="url(#f1)" style="stroke: #A80036; stroke-width: 2.0;"/><text fill="#000000" font-family="sans-serif" font-size="14" lengthAdjust="spacingAndGlyphs" textLength="41" x="9" y="220.0332">Kunde</text><ellipse cx="29.5" cy="280.5" fill="#FEFECE" filter="url(#f1)" rx="8" ry="8" style="stroke: #A80036; stroke-width: 2.0;"/><path d="M29.5,288.5 L29.5,315.5 M16.5,296.5 L42.5,296.5 M29.5,315.5 L16.5,330.5 M29.5,315.5 L42.5,330.5 " fill="#FEFECE" filter="url(#f1)" style="stroke: #A80036; stroke-width: 2.0;"/><text fill="#000000" font-family="sans-serif" font-size="14" lengthAdjust="spacingAndGlyphs" textLength="47" x="6" y="352.0332">Service</text><ellipse cx="404" cy="277.5" fill="#FEFECE" filter="url(#f1)" rx="8" ry="8" style="stroke: #A80036; stroke-width: 2.0;"/><path d="M404,285.5 L404,312.5 M391,293.5 L417,293.5 M404,312.5 L391,327.5 M404,312.5 L417,327.5 " fill="#FEFECE" filter="url(#f1)" style="stroke: #A80036; stroke-width: 2.0;"/><text fill="#000000" font-family="sans-serif" font-size="14" lengthAdjust="spacingAndGlyphs" textLength="66" x="371" y="349.0332">DB-Waren</text><ellipse cx="404" cy="138.5" fill="#FEFECE" filter="url(#f1)" rx="8" ry="8" style="stroke: #A80036; stroke-width: 2.0;"/><path d="M404,146.5 L404,173.5 M391,154.5 L417,154.5 M404,173.5 L391,188.5 M404,173.5 L417,188.5 " fill="#FEFECE" filter="url(#f1)" style="stroke: #A80036; stroke-width: 2.0;"/><text fill="#000000" font-family="sans-serif" font-size="14" lengthAdjust="spacingAndGlyphs" textLength="94" x="357" y="210.0332">DB-Warenkorb</text><ellipse cx="404" cy="18.5" fill="#FEFECE" filter="url(#f1)" rx="8" ry="8" style="stroke: #A80036; stroke-width: 2.0;"/><path d="M404,26.5 L404,53.5 M391,34.5 L417,34.5 M404,53.5 L391,68.5 M404,53.5 L417,68.5 " fill="#FEFECE" filter="url(#f1)" style="stroke: #A80036; stroke-width: 2.0;"/><text fill="#000000" font-family="sans-serif" font-size="14" lengthAdjust="spacingAndGlyphs" textLength="61" x="373.5" y="90.0332">DB-Konto</text><path d="M50.0654,176.828 C74.9683,171.517 118.903,162.147 153.479,154.774 " fill="none" style="stroke: #A80036; stroke-width: 1.0;"/><path d="M50.0209,207.522 C60.4026,220.053 74.0915,234.345 89,244 C104.6606,254.142 123.237,261.932 140.842,267.785 " fill="none" style="stroke: #A80036; stroke-width: 1.0;"/><path d="M50.2136,149.278 C60.2769,135.425 73.6419,120.074 89,110 C111.405,95.304 140.431,87.039 163.716,82.456 " fill="none" style="stroke: #A80036; stroke-width: 1.0;"/><path d="M50.0654,184.383 C74.3479,188.582 116.726,195.909 150.878,201.815 " fill="none" style="stroke: #A80036; stroke-width: 1.0;"/><path d="M263.914,152.506 C283.483,157.512 304.524,165.444 321,178 C329.288,184.316 357.439,231.087 378.459,267.182 " fill="none" style="stroke: #A80036; stroke-width: 1.0;"/><path d="M264.84,152.064 C294.318,156.104 329.485,160.924 356.962,164.69 " fill="none" style="stroke: #A80036; stroke-width: 1.0;"/><path d="M266.777,267.407 C284.884,261.454 304.329,253.705 321,244 C335.331,235.657 349.392,224.554 361.711,213.53 " fill="none" style="stroke: #A80036; stroke-width: 1.0;"/><path d="M246.341,71.676 C284.052,66.699 339.481,59.383 373.298,54.92 " fill="none" style="stroke: #A80036; stroke-width: 1.0;"/><path d="M244.036,84.288 C267.071,89.574 296.613,97.932 321,110 C333.245,116.059 345.542,123.992 356.753,132.124 " fill="none" style="stroke: #A80036; stroke-width: 1.0;"/><path d="M53.1821,309.078 C73.0226,305.6474 102.965,300.47 130.955,295.63 " fill="none" style="stroke: #A80036; stroke-width: 1.0;"/><path d="M53.1821,318.4908 C82.9428,325.6951 135.433,338.4016 169.968,346.7616 " fill="none" style="stroke: #A80036; stroke-width: 1.0;"/><path d="M240.766,347.0585 C277.549,338.6563 335.112,325.5075 370.865,317.3406 " fill="none" style="stroke: #A80036; stroke-width: 1.0;"/></g></svg>