<?xml version="1.0" encoding="UTF-8" standalone="yes"?><svg xmlns="http://www.w3.org/2000/svg" xmlns:xlink="http://www.w3.org/1999/xlink" height="394px" style="width:507px;height:394px;" version="1.1" viewBox="0 0 507 394" width="507px"><defs><filter height="300%" id="f1" width="300%" x="-1" y="-1"><feGaussianBlur result="blurOut" stdDeviation="2.0"/><feColorMatrix in="blurOut" result="blurOut2" type="matrix" values="0 0 0 0 0 0 0 0 0 0 0 0 0 0 0 0 0 0 .4 0"/><feOffset dx="4.0" dy="4.0" in="blurOut2" result="blurOut3"/><feBlend in="SourceGraphic" in2="blurOut3" mode="normal"/></filter></defs><g><rect fill="#FFFFFF" filter="url(#f1)" height="363" style="stroke: #000000; stroke-width: 2.0;" width="216" x="152" y="24"/><text fill="#000000" font-family="sans-serif" font-size="14" font-weight="bold" lengthAdjust="spacingAndGlyphs" textLength="142" x="189" y="40.5332">Automatische Kasse</text><ellipse cx="259.8716" cy="209.1743" fill="#FEFECE" filter="url(#f1)" rx="68.8716" ry="16.1743" style="stroke: #A80036; stroke-width: 1.5;"/><text fill="#000000" font-family="sans-serif" font-size="14" lengthAdjust="spacingAndGlyphs" textLength="98" x="210.8716" y="214.479">Artikel erfassen</text><ellipse cx="260.1309" cy="280.8262" fill="#FEFECE" filter="url(#f1)" rx="92.1309" ry="20.8262" style="stroke: #A80036; stroke-width: 1.5;"/><text fill="#000000" font-family="sans-serif" font-size="14" lengthAdjust="spacingAndGlyphs" textLength="155" x="182.6309" y="286.1309">Warenkorb manipulieren</text><ellipse cx="260.0122" cy="141.9517" fill="#FEFECE" filter="url(#f1)" rx="44.0122" ry="15.4517" style="stroke: #A80036; stroke-width: 1.5;"/><text fill="#000000" font-family="sans-serif" font-size="14" lengthAdjust="spacingAndGlyphs" textLength="58" x="231.0122" y="147.2564">Bezahlen</text><ellipse cx="259.8112" cy="76.1622" fill="#FEFECE" filter="url(#f1)" rx="66.3112" ry="15.6622" style="stroke: #A80036; stroke-width: 1.5;"/><text fill="#000000" font-family="sans-serif" font-size="14" lengthAdjust="spacingAndGlyphs" textLength="91" x="214.3112" y="81.4669">Kasse räumen</text><ellipse cx="260.0151" cy="354.203" fill="#FEFECE" filter="url(#f1)" rx="71.5151" ry="16.703" style="stroke: #A80036; stroke-width: 1.5;"/><text fill="#000000" font-family="sans-serif" font-size="14" lengthAdjust="spacingAndGlyphs" textLength="105" x="207.5151" y="359.5077">Wartung/Service</text><ellipse cx="57" cy="146.5" fill="#FEFECE" filter="url(#f1)" rx="8" ry="8" style="stroke: #A80036; stroke-width: 2.0;"/><path d="M57,154.5 L57,181.5 M44,162.5 L70,162.5 M57,181.5 L44,196.5 M57,181.5 L70,196.5 " fill="#FEFECE" filter="url(#f1)" style="stroke: #A80036; stroke-width: 2.0;"/><text fill="#000000" font-family="sans-serif" font-size="14" lengthAdjust="spacingAndGlyphs" textLength="41" x="36.5" y="218.0332">Kunde</text><ellipse cx="57" cy="278.5" fill="#FEFECE" filter="url(#f1)" rx="8" ry="8" style="stroke: #A80036; stroke-width: 2.0;"/><path d="M57,286.5 L57,313.5 M44,294.5 L70,294.5 M57,313.5 L44,328.5 M57,313.5 L70,328.5 " fill="#FEFECE" filter="url(#f1)" style="stroke: #A80036; stroke-width: 2.0;"/><text fill="#000000" font-family="sans-serif" font-size="14" lengthAdjust="spacingAndGlyphs" textLength="102" x="6" y="350.0332">Servicepersonal</text><ellipse cx="459" cy="321.5" fill="#FEFECE" filter="url(#f1)" rx="8" ry="8" style="stroke: #A80036; stroke-width: 2.0;"/><path d="M459,329.5 L459,356.5 M446,337.5 L472,337.5 M459,356.5 L446,371.5 M459,356.5 L472,371.5 " fill="#FEFECE" filter="url(#f1)" style="stroke: #A80036; stroke-width: 2.0;"/><text fill="#000000" font-family="sans-serif" font-size="14" lengthAdjust="spacingAndGlyphs" textLength="66" x="426" y="393.0332">DB-Waren</text><ellipse cx="459" cy="201.5" fill="#FEFECE" filter="url(#f1)" rx="8" ry="8" style="stroke: #A80036; stroke-width: 2.0;"/><path d="M459,209.5 L459,236.5 M446,217.5 L472,217.5 M459,236.5 L446,251.5 M459,236.5 L472,251.5 " fill="#FEFECE" filter="url(#f1)" style="stroke: #A80036; stroke-width: 2.0;"/><text fill="#000000" font-family="sans-serif" font-size="14" lengthAdjust="spacingAndGlyphs" textLength="94" x="412" y="273.0332">DB-Warenkorb</text><ellipse cx="459" cy="81.5" fill="#FEFECE" filter="url(#f1)" rx="8" ry="8" style="stroke: #A80036; stroke-width: 2.0;"/><path d="M459,89.5 L459,116.5 M446,97.5 L472,97.5 M459,116.5 L446,131.5 M459,116.5 L472,131.5 " fill="#FEFECE" filter="url(#f1)" style="stroke: #A80036; stroke-width: 2.0;"/><text fill="#000000" font-family="sans-serif" font-size="14" lengthAdjust="spacingAndGlyphs" textLength="61" x="428.5" y="153.0332">DB-Konto</text><path d="M77.6387,181.931 C106.088,186.177 159.916,194.211 201.57,200.428 " fill="none" style="stroke: #A80036; stroke-width: 1.0;"/><path d="M77.6181,196.491 C94.2992,210.626 119.396,230.208 144,243 C161.164,251.924 180.843,259.341 199.014,265.183 " fill="none" style="stroke: #A80036; stroke-width: 1.0;"/><path d="M77.6387,175.385 C110.632,169.311 177.758,156.955 220.444,149.097 " fill="none" style="stroke: #A80036; stroke-width: 1.0;"/><path d="M77.5195,159.179 C93.9476,143.525 118.745,122.19 144,109 C163.976,98.567 187.677,91.049 208.357,85.851 " fill="none" style="stroke: #A80036; stroke-width: 1.0;"/><path d="M317.626,217.828 C337.402,222.875 358.908,230.751 376,243 C398.552,259.161 395.556,271.653 412,294 C416.434,300.026 421.174,306.3432 425.864,312.523 " fill="none" style="stroke: #A80036; stroke-width: 1.0;"/><path d="M320.909,216.603 C350.115,220.309 384.697,224.698 411.821,228.14 " fill="none" style="stroke: #A80036; stroke-width: 1.0;"/><path d="M324.145,265.935 C352.618,259.142 385.636,251.265 411.754,245.033 " fill="none" style="stroke: #A80036; stroke-width: 1.0;"/><path d="M301.341,136.266 C339.052,130.906 394.481,123.028 428.298,118.222 " fill="none" style="stroke: #A80036; stroke-width: 1.0;"/><path d="M298.401,149.763 C321.47,155.343 351.273,164.008 376,176 C388.238,181.935 400.631,189.638 411.948,197.48 " fill="none" style="stroke: #A80036; stroke-width: 1.0;"/><path d="M108.202,303.5071 C130.644,300.158 157.594,296.135 182.465,292.423 " fill="none" style="stroke: #A80036; stroke-width: 1.0;"/><path d="M108.202,321.7398 C138.319,328.1826 176.554,336.3623 206.987,342.8729 " fill="none" style="stroke: #A80036; stroke-width: 1.0;"/><path d="M331.565,354 C363.803,354 400.393,354 425.886,354 " fill="none" style="stroke: #A80036; stroke-width: 1.0;"/><path d="M316.396,343.8325 C336.155,338.6406 357.966,331.0153 376,320 C394.486,308.7087 411.602,292.212 425.362,276.68 " fill="none" style="stroke: #A80036; stroke-width: 1.0;"/></g></svg>