<?xml version="1.0" encoding="UTF-8" standalone="yes"?><svg xmlns="http://www.w3.org/2000/svg" xmlns:xlink="http://www.w3.org/1999/xlink" height="376px" style="width:360px;height:376px;" version="1.1" viewBox="0 0 360 376" width="360px"><defs><filter height="300%" id="f1" width="300%" x="-1" y="-1"><feGaussianBlur result="blurOut" stdDeviation="2.0"/><feColorMatrix in="blurOut" result="blurOut2" type="matrix" values="0 0 0 0 0 0 0 0 0 0 0 0 0 0 0 0 0 0 .4 0"/><feOffset dx="4.0" dy="4.0" in="blurOut2" result="blurOut3"/><feBlend in="SourceGraphic" in2="blurOut3" mode="normal"/></filter></defs><g><text fill="#000000" font-family="sans-serif" font-size="14" font-weight="bold" lengthAdjust="spacingAndGlyphs" textLength="42" x="160.5" y="24.5332">figure</text><line style="stroke: #A80036; stroke-width: 1.0; stroke-dasharray: 5.0,5.0;" x1="27" x2="27" y1="119.2188" y2="290.9766"/><line style="stroke: #A80036; stroke-width: 1.0; stroke-dasharray: 5.0,5.0;" x1="122" x2="122" y1="119.2188" y2="290.9766"/><line style="stroke: #A80036; stroke-width: 1.0; stroke-dasharray: 5.0,5.0;" x1="176" x2="176" y1="119.2188" y2="290.9766"/><line style="stroke: #A80036; stroke-width: 1.0; stroke-dasharray: 5.0,5.0;" x1="225" x2="225" y1="119.2188" y2="290.9766"/><line style="stroke: #A80036; stroke-width: 1.0; stroke-dasharray: 5.0,5.0;" x1="274" x2="274" y1="119.2188" y2="290.9766"/><line style="stroke: #A80036; stroke-width: 1.0; stroke-dasharray: 5.0,5.0;" x1="329" x2="329" y1="119.2188" y2="290.9766"/><text fill="#000000" font-family="sans-serif" font-size="14" lengthAdjust="spacingAndGlyphs" textLength="33" x="8" y="116.1426">Foo1</text><ellipse cx="27.5" cy="44.6094" fill="#FEFECE" filter="url(#f1)" rx="8" ry="8" style="stroke: #A80036; stroke-width: 2.0;"/><path d="M27.5,52.6094 L27.5,79.6094 M14.5,60.6094 L40.5,60.6094 M27.5,79.6094 L14.5,94.6094 M27.5,79.6094 L40.5,94.6094 " fill="#FEFECE" filter="url(#f1)" style="stroke: #A80036; stroke-width: 2.0;"/><text fill="#000000" font-family="sans-serif" font-size="14" lengthAdjust="spacingAndGlyphs" textLength="33" x="8" y="304.5098">Foo1</text><ellipse cx="27.5" cy="317.5859" fill="#FEFECE" filter="url(#f1)" rx="8" ry="8" style="stroke: #A80036; stroke-width: 2.0;"/><path d="M27.5,325.5859 L27.5,352.5859 M14.5,333.5859 L40.5,333.5859 M27.5,352.5859 L14.5,367.5859 M27.5,352.5859 L40.5,367.5859 " fill="#FEFECE" filter="url(#f1)" style="stroke: #A80036; stroke-width: 2.0;"/><text fill="#000000" font-family="sans-serif" font-size="14" lengthAdjust="spacingAndGlyphs" textLength="33" x="103" y="116.1426">Foo2</text><path d="M102,73.6094 L102,97.6094 M102,85.6094 L119,85.6094 " fill="#FEFECE" filter="url(#f1)" style="stroke: #A80036; stroke-width: 2.0;"/><ellipse cx="131" cy="85.6094" fill="#FEFECE" filter="url(#f1)" rx="12" ry="12" style="stroke: #A80036; stroke-width: 2.0;"/><text fill="#000000" font-family="sans-serif" font-size="14" lengthAdjust="spacingAndGlyphs" textLength="33" x="103" y="304.5098">Foo2</text><path d="M102,311.5859 L102,335.5859 M102,323.5859 L119,323.5859 " fill="#FEFECE" filter="url(#f1)" style="stroke: #A80036; stroke-width: 2.0;"/><ellipse cx="131" cy="323.5859" fill="#FEFECE" filter="url(#f1)" rx="12" ry="12" style="stroke: #A80036; stroke-width: 2.0;"/><text fill="#000000" font-family="sans-serif" font-size="14" lengthAdjust="spacingAndGlyphs" textLength="33" x="157" y="116.1426">Foo3</text><ellipse cx="176.5" cy="85.6094" fill="#FEFECE" filter="url(#f1)" rx="12" ry="12" style="stroke: #A80036; stroke-width: 2.0;"/><polygon fill="#A80036" points="172.5,73.6094,178.5,68.6094,176.5,73.6094,178.5,78.6094,172.5,73.6094" style="stroke: #A80036; stroke-width: 1.0;"/><text fill="#000000" font-family="sans-serif" font-size="14" lengthAdjust="spacingAndGlyphs" textLength="33" x="157" y="304.5098">Foo3</text><ellipse cx="176.5" cy="323.5859" fill="#FEFECE" filter="url(#f1)" rx="12" ry="12" style="stroke: #A80036; stroke-width: 2.0;"/><polygon fill="#A80036" points="172.5,311.5859,178.5,306.5859,176.5,311.5859,178.5,316.5859,172.5,311.5859" style="stroke: #A80036; stroke-width: 1.0;"/><text fill="#000000" font-family="sans-serif" font-size="14" lengthAdjust="spacingAndGlyphs" textLength="33" x="206" y="116.1426">Foo4</text><ellipse cx="225.5" cy="85.6094" fill="#FEFECE" filter="url(#f1)" rx="12" ry="12" style="stroke: #A80036; stroke-width: 2.0;"/><line style="stroke: #A80036; stroke-width: 2.0;" x1="213.5" x2="237.5" y1="99.6094" y2="99.6094"/><text fill="#000000" font-family="sans-serif" font-size="14" lengthAdjust="spacingAndGlyphs" textLength="33" x="206" y="304.5098">Foo4</text><ellipse cx="225.5" cy="323.5859" fill="#FEFECE" filter="url(#f1)" rx="12" ry="12" style="stroke: #A80036; stroke-width: 2.0;"/><line style="stroke: #A80036; stroke-width: 2.0;" x1="213.5" x2="237.5" y1="337.5859" y2="337.5859"/><text fill="#000000" font-family="sans-serif" font-size="14" lengthAdjust="spacingAndGlyphs" textLength="33" x="255" y="116.1426">Foo5</text><path d="M256.5,69.6094 C256.5,59.6094 274.5,59.6094 274.5,59.6094 C274.5,59.6094 292.5,59.6094 292.5,69.6094 L292.5,91.6094 C292.5,101.6094 274.5,101.6094 274.5,101.6094 C274.5,101.6094 256.5,101.6094 256.5,91.6094 L256.5,69.6094 " fill="#FEFECE" filter="url(#f1)" style="stroke: #A80036; stroke-width: 1.5;"/><path d="M256.5,69.6094 C256.5,79.6094 274.5,79.6094 274.5,79.6094 C274.5,79.6094 292.5,79.6094 292.5,69.6094 " fill="none" style="stroke: #A80036; stroke-width: 1.5;"/><text fill="#000000" font-family="sans-serif" font-size="14" lengthAdjust="spacingAndGlyphs" textLength="33" x="255" y="304.5098">Foo5</text><path d="M256.5,317.5859 C256.5,307.5859 274.5,307.5859 274.5,307.5859 C274.5,307.5859 292.5,307.5859 292.5,317.5859 L292.5,339.5859 C292.5,349.5859 274.5,349.5859 274.5,349.5859 C274.5,349.5859 256.5,349.5859 256.5,339.5859 L256.5,317.5859 " fill="#FEFECE" filter="url(#f1)" style="stroke: #A80036; stroke-width: 1.5;"/><path d="M256.5,317.5859 C256.5,327.5859 274.5,327.5859 274.5,327.5859 C274.5,327.5859 292.5,327.5859 292.5,317.5859 " fill="none" style="stroke: #A80036; stroke-width: 1.5;"/><rect fill="#FEFECE" filter="url(#f1)" height="31.6094" style="stroke: #A80036; stroke-width: 1.5;" width="47" x="304" y="82.6094"/><text fill="#000000" font-family="sans-serif" font-size="14" lengthAdjust="spacingAndGlyphs" textLength="33" x="311" y="104.1426">Foo6</text><rect fill="#FEFECE" filter="url(#f1)" height="31.6094" style="stroke: #A80036; stroke-width: 1.5;" width="47" x="304" y="289.9766"/><text fill="#000000" font-family="sans-serif" font-size="14" lengthAdjust="spacingAndGlyphs" textLength="33" x="311" y="311.5098">Foo6</text><polygon fill="#A80036" points="110.5,147.2188,120.5,151.2188,110.5,155.2188,114.5,151.2188" style="stroke: #A80036; stroke-width: 1.0;"/><line style="stroke: #A80036; stroke-width: 1.0;" x1="27.5" x2="116.5" y1="151.2188" y2="151.2188"/><text fill="#000000" font-family="sans-serif" font-size="13" lengthAdjust="spacingAndGlyphs" textLength="71" x="34.5" y="146.7139">To boundary</text><polygon fill="#A80036" points="164.5,177.5703,174.5,181.5703,164.5,185.5703,168.5,181.5703" style="stroke: #A80036; stroke-width: 1.0;"/><line style="stroke: #A80036; stroke-width: 1.0;" x1="27.5" x2="170.5" y1="181.5703" y2="181.5703"/><text fill="#000000" font-family="sans-serif" font-size="13" lengthAdjust="spacingAndGlyphs" textLength="57" x="34.5" y="177.0654">To control</text><polygon fill="#A80036" points="213.5,207.9219,223.5,211.9219,213.5,215.9219,217.5,211.9219" style="stroke: #A80036; stroke-width: 1.0;"/><line style="stroke: #A80036; stroke-width: 1.0;" x1="27.5" x2="219.5" y1="211.9219" y2="211.9219"/><text fill="#000000" font-family="sans-serif" font-size="13" lengthAdjust="spacingAndGlyphs" textLength="50" x="34.5" y="207.417">To entity</text><polygon fill="#A80036" points="262.5,238.2734,272.5,242.2734,262.5,246.2734,266.5,242.2734" style="stroke: #A80036; stroke-width: 1.0;"/><line style="stroke: #A80036; stroke-width: 1.0;" x1="27.5" x2="268.5" y1="242.2734" y2="242.2734"/><text fill="#000000" font-family="sans-serif" font-size="13" lengthAdjust="spacingAndGlyphs" textLength="71" x="34.5" y="237.7686">To database</text><polygon fill="#A80036" points="317.5,268.625,327.5,272.625,317.5,276.625,321.5,272.625" style="stroke: #A80036; stroke-width: 1.0;"/><line style="stroke: #A80036; stroke-width: 1.0;" x1="27.5" x2="323.5" y1="272.625" y2="272.625"/><text fill="#000000" font-family="sans-serif" font-size="13" lengthAdjust="spacingAndGlyphs" textLength="78" x="34.5" y="268.1201">To participant</text></g></svg>