<?xml version="1.0" encoding="UTF-8" standalone="yes"?><svg xmlns="http://www.w3.org/2000/svg" xmlns:xlink="http://www.w3.org/1999/xlink" height="58px" style="width:299px;height:58px;" version="1.1" viewBox="0 0 299 58" width="299px"><defs><filter height="300%" id="f1" width="300%" x="-1" y="-1"><feGaussianBlur result="blurOut" stdDeviation="2.0"/><feColorMatrix in="blurOut" result="blurOut2" type="matrix" values="0 0 0 0 0 0 0 0 0 0 0 0 0 0 0 0 0 0 .4 0"/><feOffset dx="4.0" dy="4.0" in="blurOut2" result="blurOut3"/><feBlend in="SourceGraphic" in2="blurOut3" mode="normal"/></filter></defs><g><rect fill="#FEFECE" filter="url(#f1)" height="25.0938" style="stroke: #A80036; stroke-width: 1.5;" width="63" x="227" y="13.5"/><text fill="#000000" font-family="sans-serif" font-size="12" font-weight="bold" lengthAdjust="spacingAndGlyphs" text-decoration="underline" textLength="57" x="230" y="30.957">Professor</text><line style="stroke: #000000; stroke-width: 1.0;" x1="230" x2="287" y1="32.957" y2="32.957"/><rect fill="#FEFECE" filter="url(#f1)" height="25.0938" style="stroke: #A80036; stroke-width: 1.5;" width="50" x="6" y="13.5"/><text fill="#000000" font-family="sans-serif" font-size="12" font-weight="bold" lengthAdjust="spacingAndGlyphs" text-decoration="underline" textLength="44" x="9" y="30.957">Student</text><line style="stroke: #000000; stroke-width: 1.0;" x1="9" x2="53" y1="32.957" y2="32.957"/><path d="M56.1325,26 C95.8456,26 175.183,26 221.535,26 " fill="none" style="stroke: #A80036; stroke-width: 1.0;"/><polygon fill="#A80036" points="226.743,26,217.743,22,221.743,26,217.743,30,226.743,26" style="stroke: #A80036; stroke-width: 1.0;"/><polygon fill="#000000" points="94,15.6758,88,18.6758,94,21.6758,94,15.6758" style="stroke: #000000; stroke-width: 1.0;"/><text fill="#000000" font-family="sans-serif" font-size="13" lengthAdjust="spacingAndGlyphs" textLength="96" x="100" y="22.4951">haeltVortragFuer</text><text fill="#000000" font-family="sans-serif" font-size="13" lengthAdjust="spacingAndGlyphs" textLength="5" x="63.9041" y="41.7814">*</text><text fill="#000000" font-family="sans-serif" font-size="13" lengthAdjust="spacingAndGlyphs" textLength="5" x="177.504" y="41.2784">*</text><text fill="#000000" font-family="sans-serif" font-size="13" lengthAdjust="spacingAndGlyphs" textLength="78" x="141.004" y="57.63">+vortragender</text></g></svg>