<?xml version="1.0" encoding="UTF-8" standalone="yes"?><svg xmlns="http://www.w3.org/2000/svg" xmlns:xlink="http://www.w3.org/1999/xlink" height="113px" style="width:354px;height:113px;" version="1.1" viewBox="0 0 354 113" width="354px"><defs><filter height="300%" id="f1" width="300%" x="-1" y="-1"><feGaussianBlur result="blurOut" stdDeviation="2.0"/><feColorMatrix in="blurOut" result="blurOut2" type="matrix" values="0 0 0 0 0 0 0 0 0 0 0 0 0 0 0 0 0 0 .4 0"/><feOffset dx="4.0" dy="4.0" in="blurOut2" result="blurOut3"/><feBlend in="SourceGraphic" in2="blurOut3" mode="normal"/></filter></defs><g><rect fill="#FEFECE" filter="url(#f1)" height="25.0938" style="stroke: #A80036; stroke-width: 1.5;" width="53" x="6" y="8"/><text fill="#000000" font-family="sans-serif" font-size="12" font-weight="bold" lengthAdjust="spacingAndGlyphs" text-decoration="underline" textLength="47" x="9" y="25.457">Studium</text><line style="stroke: #000000; stroke-width: 1.0;" x1="9" x2="56" y1="27.457" y2="27.457"/><rect fill="#FEFECE" filter="url(#f1)" height="25.0938" style="stroke: #A80036; stroke-width: 1.5;" width="50" x="295" y="8"/><text fill="#000000" font-family="sans-serif" font-size="12" font-weight="bold" lengthAdjust="spacingAndGlyphs" text-decoration="underline" textLength="44" x="298" y="25.457">Student</text><line style="stroke: #000000; stroke-width: 1.0;" x1="298" x2="342" y1="27.457" y2="27.457"/><rect fill="#FEFECE" filter="url(#f1)" height="46.9297" style="stroke: #A80036; stroke-width: 1.5;" width="116" x="119" y="58"/><text fill="#000000" font-family="sans-serif" font-size="12" font-weight="bold" lengthAdjust="spacingAndGlyphs" text-decoration="underline" textLength="81" x="136.5" y="75.457">Einschreibung</text><line style="stroke: #000000; stroke-width: 1.0;" x1="136.5" x2="217.5" y1="77.457" y2="77.457"/><line style="stroke: #A80036; stroke-width: 1.5;" x1="120" x2="234" y1="83.0938" y2="83.0938"/><ellipse cx="130" cy="95.5117" fill="none" rx="3" ry="3" style="stroke: #038048; stroke-width: 1.0;"/><text fill="#000000" font-family="sans-serif" font-size="11" lengthAdjust="spacingAndGlyphs" textLength="90" x="139" y="98.5127">beginnDatum: Date</text><ellipse cx="177" cy="20.5" fill="#000000" rx="2" ry="2" style="stroke: none; stroke-width: 1.0;"/><path d="M59.3057,20.5 C97.4829,20.5 165.535,20.5 174.917,20.5 " fill="none" style="stroke: #A80036; stroke-width: 1.0;"/><text fill="#000000" font-family="sans-serif" font-size="13" lengthAdjust="spacingAndGlyphs" textLength="20" x="66.8969" y="35.6717">1..*</text><path d="M179.583,20.5 C190.717,20.5 257.869,20.5 294.761,20.5 " fill="none" style="stroke: #A80036; stroke-width: 1.0;"/><text fill="#000000" font-family="sans-serif" font-size="13" lengthAdjust="spacingAndGlyphs" textLength="5" x="281.9594" y="36.2814">*</text><path d="M177,22.5328 C177,34.2458 177,45.9589 177,57.6719 " fill="none" style="stroke: #A80036; stroke-width: 1.0; stroke-dasharray: 7.0,7.0;"/></g></svg>