<?xml version="1.0" encoding="UTF-8" standalone="yes"?><svg xmlns="http://www.w3.org/2000/svg" xmlns:xlink="http://www.w3.org/1999/xlink" height="145px" style="width:777px;height:145px;" version="1.1" viewBox="0 0 777 145" width="777px"><defs><filter height="300%" id="f1" width="300%" x="-1" y="-1"><feGaussianBlur result="blurOut" stdDeviation="2.0"/><feColorMatrix in="blurOut" result="blurOut2" type="matrix" values="0 0 0 0 0 0 0 0 0 0 0 0 0 0 0 0 0 0 .4 0"/><feOffset dx="4.0" dy="4.0" in="blurOut2" result="blurOut3"/><feBlend in="SourceGraphic" in2="blurOut3" mode="normal"/></filter></defs><g><rect fill="#FEFECE" filter="url(#f1)" height="25.0938" style="stroke: #A80036; stroke-width: 1.5;" width="50" x="6" y="8"/><text fill="#000000" font-family="sans-serif" font-size="12" lengthAdjust="spacingAndGlyphs" textLength="44" x="9" y="25.457">class01</text><rect fill="#FEFECE" filter="url(#f1)" height="25.0938" style="stroke: #A80036; stroke-width: 1.5;" width="50" x="6" y="111"/><text fill="#000000" font-family="sans-serif" font-size="12" lengthAdjust="spacingAndGlyphs" textLength="44" x="9" y="128.457">class02</text><rect fill="#FEFECE" filter="url(#f1)" height="25.0938" style="stroke: #A80036; stroke-width: 1.5;" width="50" x="138" y="8"/><text fill="#000000" font-family="sans-serif" font-size="12" lengthAdjust="spacingAndGlyphs" textLength="44" x="141" y="25.457">class03</text><rect fill="#FEFECE" filter="url(#f1)" height="25.0938" style="stroke: #A80036; stroke-width: 1.5;" width="50" x="138" y="111"/><text fill="#000000" font-family="sans-serif" font-size="12" lengthAdjust="spacingAndGlyphs" textLength="44" x="141" y="128.457">class04</text><rect fill="#FEFECE" filter="url(#f1)" height="25.0938" style="stroke: #A80036; stroke-width: 1.5;" width="50" x="289" y="8"/><text fill="#000000" font-family="sans-serif" font-size="12" lengthAdjust="spacingAndGlyphs" textLength="44" x="292" y="25.457">class05</text><rect fill="#FEFECE" filter="url(#f1)" height="25.0938" style="stroke: #A80036; stroke-width: 1.5;" width="50" x="289" y="111"/><text fill="#000000" font-family="sans-serif" font-size="12" lengthAdjust="spacingAndGlyphs" textLength="44" x="292" y="128.457">class06</text><rect fill="#FEFECE" filter="url(#f1)" height="25.0938" style="stroke: #A80036; stroke-width: 1.5;" width="50" x="462" y="8"/><text fill="#000000" font-family="sans-serif" font-size="12" lengthAdjust="spacingAndGlyphs" textLength="44" x="465" y="25.457">class07</text><rect fill="#FEFECE" filter="url(#f1)" height="25.0938" style="stroke: #A80036; stroke-width: 1.5;" width="50" x="462" y="111"/><text fill="#000000" font-family="sans-serif" font-size="12" lengthAdjust="spacingAndGlyphs" textLength="44" x="465" y="128.457">class08</text><rect fill="#FEFECE" filter="url(#f1)" height="25.0938" style="stroke: #A80036; stroke-width: 1.5;" width="50" x="617" y="8"/><text fill="#000000" font-family="sans-serif" font-size="12" lengthAdjust="spacingAndGlyphs" textLength="44" x="620" y="25.457">class09</text><rect fill="#FEFECE" filter="url(#f1)" height="25.0938" style="stroke: #A80036; stroke-width: 1.5;" width="50" x="617" y="111"/><text fill="#000000" font-family="sans-serif" font-size="12" lengthAdjust="spacingAndGlyphs" textLength="44" x="620" y="128.457">class10</text><path d="M28.3677,53.5299 C27.9138,62.4232 27.6782,72.085 28,81 C28.3648,91.1065 29.2278,102.5706 29.935,110.8847 " fill="none" style="stroke: #A80036; stroke-width: 1.0;"/><polygon fill="none" points="21.4015,52.8038,29.7989,33.349,35.3664,53.7943,21.4015,52.8038" style="stroke: #A80036; stroke-width: 1.0;"/><text fill="#000000" font-family="sans-serif" font-size="13" lengthAdjust="spacingAndGlyphs" textLength="90" x="29" y="77.4951">Generalisierung</text><path d="M160.785,46.3897 C160.086,57.0457 159.59,69.6301 160,81 C160.365,91.1065 161.228,102.5706 161.935,110.8847 " fill="none" style="stroke: #A80036; stroke-width: 1.0;"/><polygon fill="#A80036" points="161.799,33.349,157.346,39.0209,160.8688,45.3129,165.3219,39.641,161.799,33.349" style="stroke: #A80036; stroke-width: 1.0;"/><text fill="#000000" font-family="sans-serif" font-size="13" lengthAdjust="spacingAndGlyphs" textLength="109" x="161" y="77.4951">starke Aggregation</text><path d="M311.785,46.3897 C311.086,57.0457 310.59,69.6301 311,81 C311.365,91.1065 312.228,102.5706 312.935,110.8847 " fill="none" style="stroke: #A80036; stroke-width: 1.0;"/><polygon fill="none" points="312.799,33.349,308.346,39.0209,311.8688,45.3129,316.3219,39.641,312.799,33.349" style="stroke: #A80036; stroke-width: 1.0;"/><text fill="#000000" font-family="sans-serif" font-size="13" lengthAdjust="spacingAndGlyphs" textLength="131" x="312" y="77.4951">schwache Aggregation</text><path d="M485.935,33.115 C485.228,41.4294 484.365,52.8935 484,63 C483.403,79.538 484.724,98.6457 485.799,110.6508 " fill="none" style="stroke: #A80036; stroke-width: 1.0;"/><text fill="#000000" font-family="sans-serif" font-size="13" lengthAdjust="spacingAndGlyphs" textLength="113" x="485" y="77.4951">einfache Beziehung</text><path d="M642,33.086 C642,50.8752 642,85.011 642,105.5724 " fill="none" style="stroke: #A80036; stroke-width: 1.0;"/><polygon fill="#A80036" points="642,110.738,646,101.738,642,105.738,638,101.738,642,110.738" style="stroke: #A80036; stroke-width: 1.0;"/><text fill="#000000" font-family="sans-serif" font-size="13" lengthAdjust="spacingAndGlyphs" textLength="133" x="643" y="77.4951">navigierbare Beziehung</text></g></svg>