<?xml version="1.0" encoding="UTF-8" standalone="yes"?><svg xmlns="http://www.w3.org/2000/svg" xmlns:xlink="http://www.w3.org/1999/xlink" height="114px" style="width:645px;height:114px;" version="1.1" viewBox="0 0 645 114" width="645px"><defs><filter height="300%" id="f1" width="300%" x="-1" y="-1"><feGaussianBlur result="blurOut" stdDeviation="2.0"/><feColorMatrix in="blurOut" result="blurOut2" type="matrix" values="0 0 0 0 0 0 0 0 0 0 0 0 0 0 0 0 0 0 .4 0"/><feOffset dx="4.0" dy="4.0" in="blurOut2" result="blurOut3"/><feBlend in="SourceGraphic" in2="blurOut3" mode="normal"/></filter></defs><g><rect fill="#FEFECE" filter="url(#f1)" height="52.7031" rx="12.5" ry="12.5" style="stroke: #A80036; stroke-width: 1.5;" width="181" x="6" y="30.5"/><line style="stroke: #A80036; stroke-width: 1.5;" x1="6" x2="187" y1="58.1094" y2="58.1094"/><text fill="#000000" font-family="sans-serif" font-size="14" lengthAdjust="spacingAndGlyphs" textLength="108" x="42.5" y="50.0332">nicht angemeldet</text><text fill="#000000" font-family="sans-serif" font-size="12" lengthAdjust="spacingAndGlyphs" textLength="161" x="11" y="75.5664">neuer Termin/Termin pruefen</text><rect fill="#FEFECE" filter="url(#f1)" height="97.9844" rx="12.5" ry="12.5" style="stroke: #A80036; stroke-width: 1.5;" width="202" x="434" y="8"/><line style="stroke: #A80036; stroke-width: 1.5;" x1="434" x2="636" y1="35.6094" y2="35.6094"/><text fill="#000000" font-family="sans-serif" font-size="14" lengthAdjust="spacingAndGlyphs" textLength="74" x="498" y="27.5332">angemeldet</text><text fill="#000000" font-family="sans-serif" font-size="12" lengthAdjust="spacingAndGlyphs" textLength="123" x="439" y="53.0664">entry/Termin eintragen</text><text fill="#000000" font-family="sans-serif" font-size="12" lengthAdjust="spacingAndGlyphs" textLength="129" x="439" y="68.1602">do/fuer Pruefung lernen</text><text fill="#000000" font-family="sans-serif" font-size="12" lengthAdjust="spacingAndGlyphs" textLength="182" x="439" y="83.2539">problem/mit Kollegen diskutieren</text><text fill="#000000" font-family="sans-serif" font-size="12" lengthAdjust="spacingAndGlyphs" textLength="114" x="439" y="98.3477">exit/Termin loeschen</text><path d="M187.15,57 C257.199,57 354.721,57 428.523,57 " fill="none" style="stroke: #A80036; stroke-width: 1.0;"/><polygon fill="#A80036" points="433.795,57,424.795,53,428.795,57,424.795,61,433.795,57" style="stroke: #A80036; stroke-width: 1.0;"/><text fill="#000000" font-family="sans-serif" font-size="13" lengthAdjust="spacingAndGlyphs" textLength="185" x="218" y="53.4951">anmelden[Anmeldung moeglich]</text><path d="M433.871,79.0769 C423.82,80.6757 413.734,82.0361 404,83 C321.293,91.1896 299.635,91.8856 217,83 C208.958,82.1353 200.664,80.9522 192.37,79.5647 " fill="none" style="stroke: #A80036; stroke-width: 1.0;"/><polygon fill="#A80036" points="187.208,78.6753,195.397,84.147,192.1352,79.5253,196.757,76.2635,187.208,78.6753" style="stroke: #A80036; stroke-width: 1.0;"/><text fill="#000000" font-family="sans-serif" font-size="13" lengthAdjust="spacingAndGlyphs" textLength="185" x="218" y="79.4951">abmelden[Abmeldung moeglich]</text></g></svg>