<?xml version="1.0" encoding="UTF-8" standalone="yes"?><svg xmlns="http://www.w3.org/2000/svg" xmlns:xlink="http://www.w3.org/1999/xlink" height="276px" style="width:359px;height:276px;" version="1.1" viewBox="0 0 359 276" width="359px"><defs><filter height="300%" id="f1" width="300%" x="-1" y="-1"><feGaussianBlur result="blurOut" stdDeviation="2.0"/><feColorMatrix in="blurOut" result="blurOut2" type="matrix" values="0 0 0 0 0 0 0 0 0 0 0 0 0 0 0 0 0 0 .4 0"/><feOffset dx="4.0" dy="4.0" in="blurOut2" result="blurOut3"/><feBlend in="SourceGraphic" in2="blurOut3" mode="normal"/></filter></defs><g><rect fill="#FEFECE" filter="url(#f1)" height="25.0938" style="stroke: #A80036; stroke-width: 1.5;" width="110" x="12.5" y="82.5"/><text fill="#000000" font-family="sans-serif" font-size="12" font-weight="bold" lengthAdjust="spacingAndGlyphs" textLength="104" x="15.5" y="99.957">Lehrveranstaltung</text><rect fill="#FEFECE" filter="url(#f1)" height="124.1094" style="stroke: #A80036; stroke-width: 1.5;" width="123" x="6" y="143"/><text fill="#000000" font-family="sans-serif" font-size="12" font-weight="bold" lengthAdjust="spacingAndGlyphs" textLength="104" x="15.5" y="160.457">Lehrveranstaltung</text><line style="stroke: #A80036; stroke-width: 1.5;" x1="7" x2="128" y1="168.0938" y2="168.0938"/><text fill="#000000" font-family="sans-serif" font-size="11" lengthAdjust="spacingAndGlyphs" textLength="26" x="12" y="183.5127">name</text><text fill="#000000" font-family="sans-serif" font-size="11" lengthAdjust="spacingAndGlyphs" textLength="45" x="12" y="197.3486">semester</text><text fill="#000000" font-family="sans-serif" font-size="11" lengthAdjust="spacingAndGlyphs" textLength="39" x="12" y="211.1846">stunden</text><line style="stroke: #A80036; stroke-width: 1.5;" x1="7" x2="128" y1="217.6016" y2="217.6016"/><text fill="#000000" font-family="sans-serif" font-size="11" lengthAdjust="spacingAndGlyphs" textLength="44" x="12" y="233.0205">getEcts()</text><text fill="#000000" font-family="sans-serif" font-size="11" lengthAdjust="spacingAndGlyphs" textLength="69" x="12" y="246.8564">getLehrende()</text><text fill="#000000" font-family="sans-serif" font-size="11" lengthAdjust="spacingAndGlyphs" textLength="111" x="12" y="260.6924">getNotendurchschnitt()</text><rect fill="#FEFECE" filter="url(#f1)" height="172.5234" style="stroke: #A80036; stroke-width: 1.5;" width="161" x="189" y="8.5"/><ellipse cx="215.25" cy="24.5" fill="#ADD1B2" rx="11" ry="11" style="stroke: #A80036; stroke-width: 1.0;"/><path d="M218.0156,20.375 Q218.1719,20.1563 218.3594,20.0469 Q218.5469,19.9375 218.7656,19.9375 Q219.1406,19.9375 219.375,20.1953 Q219.6094,20.4531 219.6094,21.0625 L219.6094,22.5156 Q219.6094,23.125 219.375,23.3906 Q219.1406,23.6563 218.7656,23.6563 Q218.4219,23.6563 218.2188,23.4531 Q218.0156,23.2656 217.9063,22.75 Q217.8594,22.3906 217.6719,22.2031 Q217.3438,21.8281 216.7344,21.6094 Q216.125,21.3906 215.5,21.3906 Q214.7344,21.3906 214.1016,21.7188 Q213.4688,22.0469 212.9766,22.7969 Q212.4844,23.5469 212.4844,24.5781 L212.4844,25.6719 Q212.4844,26.9063 213.375,27.7266 Q214.2656,28.5469 215.8594,28.5469 Q216.7969,28.5469 217.4531,28.2969 Q217.8438,28.1406 218.2656,27.7031 Q218.5313,27.4375 218.6797,27.3594 Q218.8281,27.2813 219.0313,27.2813 Q219.3594,27.2813 219.6172,27.5391 Q219.875,27.7969 219.875,28.1406 Q219.875,28.4844 219.5313,28.8906 Q219.0313,29.4688 218.2344,29.7969 Q217.1563,30.25 215.8594,30.25 Q214.3438,30.25 213.1406,29.625 Q212.1563,29.125 211.4688,28.0547 Q210.7813,26.9844 210.7813,25.7031 L210.7813,24.5469 Q210.7813,23.2188 211.3984,22.0703 Q212.0156,20.9219 213.1094,20.3047 Q214.2031,19.6875 215.4375,19.6875 Q216.1719,19.6875 216.8203,19.8516 Q217.4688,20.0156 218.0156,20.375 Z "/><text fill="#000000" font-family="sans-serif" font-size="12" font-weight="bold" lengthAdjust="spacingAndGlyphs" textLength="104" x="231.75" y="29.4102">Lehrveranstaltung</text><line style="stroke: #A80036; stroke-width: 1.5;" x1="190" x2="349" y1="40.5" y2="40.5"/><text fill="#000000" font-family="sans-serif" font-size="11" lengthAdjust="spacingAndGlyphs" textLength="63" x="195" y="55.9189">+name:String</text><text fill="#000000" font-family="sans-serif" font-size="11" lengthAdjust="spacingAndGlyphs" textLength="118" x="195" y="69.7549">+semester:SemesterTyp</text><text fill="#000000" font-family="sans-serif" font-size="11" lengthAdjust="spacingAndGlyphs" textLength="67" x="195" y="83.5908">-stunden:float</text><text fill="#000000" font-family="sans-serif" font-size="11" lengthAdjust="spacingAndGlyphs" textLength="42" x="195" y="97.4268">-/ects:int</text><line style="stroke: #A80036; stroke-width: 1.5;" x1="190" x2="349" y1="103.8438" y2="103.8438"/><text fill="#000000" font-family="sans-serif" font-size="11" lengthAdjust="spacingAndGlyphs" textLength="64" x="195" y="119.2627">+getEcts():int</text><text fill="#000000" font-family="sans-serif" font-size="11" lengthAdjust="spacingAndGlyphs" textLength="139" x="195" y="133.0986">+getLehrende():Vortragende</text><text fill="#000000" font-family="sans-serif" font-size="11" lengthAdjust="spacingAndGlyphs" textLength="141" x="195" y="146.9346">+getNotendurchschnitt():float</text><text fill="#000000" font-family="sans-serif" font-size="11" lengthAdjust="spacingAndGlyphs" textLength="93" x="195" y="160.7705">+getStunden():float</text><text fill="#000000" font-family="sans-serif" font-size="11" lengthAdjust="spacingAndGlyphs" textLength="149" x="195" y="174.6064">+setStunden(stunde:float):void</text></g></svg>